<svg width="48" height="48" viewBox="0 0 48 48" fill="none" xmlns="http://www.w3.org/2000/svg">
<path d="M27.2847 22.7634C27.4262 23.0402 27.7079 23.2001 27.999 23.2001C28.1206 23.2001 28.2454 23.1721 28.3615 23.1129C28.4086 23.0889 33.1175 20.6969 35.4399 19.9633C35.8607 19.8297 36.0943 19.3801 35.9607 18.9593C35.8278 18.5385 35.3815 18.3041 34.9567 18.437C32.5103 19.2106 27.8335 21.5866 27.6351 21.6874C27.2415 21.8873 27.0847 22.369 27.2847 22.7634Z" fill="url(#paint0_linear)"/>
<path d="M27.999 13.6001C28.1206 13.6001 28.2454 13.5721 28.3615 13.5129C28.4086 13.4889 33.1175 11.0969 35.4399 10.3633C35.8607 10.2297 36.0942 9.78012 35.9606 9.35937C35.8278 8.93853 35.3815 8.70415 34.9567 8.837C32.5103 9.61062 27.8335 11.9866 27.6351 12.0874C27.2415 12.2874 27.0847 12.769 27.2847 13.1634C27.4262 13.4401 27.7078 13.6001 27.999 13.6001Z" fill="url(#paint1_linear)"/>
<path d="M47.1999 12.0004C46.7575 12.0004 46.4 12.3588 46.4 12.8003V44.0003C46.4 45.3235 45.3231 46.4003 44 46.4003H24.8V44.5595C25.9664 44.1515 29.0048 43.2003 32 43.2003C38.9688 43.2003 43.7008 44.7435 43.748 44.7595C43.9887 44.8394 44.2576 44.7995 44.468 44.649C44.6767 44.4986 44.7999 44.257 44.7999 44.0002V8.8004C44.7999 8.42521 44.54 8.10037 44.1735 8.01955C44.1735 8.01955 43.5463 7.87958 42.4743 7.68271C42.0414 7.60274 41.6231 7.89074 41.5431 8.32433C41.4631 8.75952 41.7502 9.17633 42.1847 9.2563C42.5935 9.33149 42.9359 9.39786 43.1999 9.45074V42.937C41.3871 42.4618 37.3615 41.6003 31.9999 41.6003C28.5143 41.6003 25.0903 42.745 24.0311 43.1331C23.0894 42.7171 20.2431 41.6003 16.7999 41.6003C11.2894 41.6003 6.75027 42.5091 4.7999 42.9707V9.41952C6.39749 9.02671 11.1159 8.00033 16.7999 8.00033C19.7167 8.00033 22.2182 8.9083 23.1999 9.31874V40.8003C23.1999 41.0883 23.355 41.3547 23.6054 41.4963C23.8559 41.6387 24.1647 41.6347 24.4119 41.4859C24.4911 41.4387 32.4175 36.7043 39.4526 34.3595C39.7798 34.2499 39.9998 33.9451 39.9998 33.6003V0.800348C39.9998 0.537942 39.871 0.292318 39.655 0.142787C39.4406 -0.00683773 39.1655 -0.0412439 38.9183 0.0508184C32.5175 2.45156 26.0408 6.48196 25.9759 6.52199C25.6015 6.75637 25.4871 7.24996 25.7215 7.6244C25.9551 7.99883 26.4487 8.11321 26.8239 7.87883C26.883 7.84124 32.5175 4.33565 38.3998 1.97006V33.0276C32.939 34.9252 27.2374 38.0236 24.7998 39.4107V8.8004C24.7998 8.49721 24.6286 8.22037 24.3574 8.08443C24.2198 8.01646 20.9415 6.4004 16.7999 6.4004C9.5711 6.4004 4.01352 7.96443 3.7799 8.03155C3.43668 8.12915 3.19987 8.44358 3.19987 8.8004V44.0004C3.19987 44.2508 3.31827 44.4876 3.51749 44.6388C3.6583 44.7452 3.8279 44.8004 3.99993 44.8004C4.07352 44.8004 4.14712 44.79 4.21912 44.7692C4.27433 44.754 9.80632 43.2004 16.7999 43.2004C19.7247 43.2004 22.2239 44.1108 23.1999 44.5195V46.4004H3.99993C2.67674 46.4004 1.59993 45.3235 1.59993 44.0004V12.8004C1.59993 12.3589 1.24153 12.0005 0.799967 12.0005C0.358405 12.0005 0 12.3589 0 12.8004V44.0004C0 46.2059 1.79437 48.0004 4.00002 48.0004H44C46.2055 48.0004 48 46.206 48 44.0004V12.8004C47.9999 12.3588 47.6423 12.0004 47.1999 12.0004Z" fill="url(#paint2_linear)"/>
<path d="M27.2847 17.9633C27.4262 18.2401 27.7079 18.4001 27.999 18.4001C28.1206 18.4001 28.2454 18.372 28.3615 18.3129C28.4086 18.2889 33.1175 15.8969 35.4399 15.1633C35.8607 15.0297 36.0943 14.58 35.9607 14.1593C35.8278 13.7385 35.3815 13.5041 34.9567 13.6369C32.5103 14.4105 27.8335 16.7865 27.6351 16.8873C27.2415 17.0873 27.0847 17.569 27.2847 17.9633Z" fill="url(#paint3_linear)"/>
<path d="M27.2847 27.5631C27.4262 27.84 27.7079 27.9999 27.999 27.9999C28.1206 27.9999 28.2454 27.9719 28.3615 27.9127C28.4086 27.8887 33.1175 25.4967 35.4399 24.7631C35.8607 24.6295 36.0943 24.1799 35.9607 23.7591C35.8278 23.3383 35.3815 23.1039 34.9567 23.2368C32.5103 24.0104 27.8335 26.3864 27.6351 26.4872C27.2415 26.6871 27.0847 27.1688 27.2847 27.5631Z" fill="url(#paint4_linear)"/>
<path d="M19.3806 14.8463C14.4407 13.6871 8.82705 15.164 8.59108 15.2271C8.16471 15.3415 7.91112 15.7799 8.02549 16.2071C8.12149 16.5647 8.44465 16.7999 8.79752 16.7999C8.86633 16.7999 8.9359 16.7911 9.00555 16.7727C9.05918 16.7575 14.4639 15.3359 19.016 16.4039C19.4439 16.5039 19.8768 16.2375 19.9776 15.8071C20.0782 15.3775 19.8111 14.9471 19.3806 14.8463Z" fill="url(#paint5_linear)"/>
<path d="M19.3806 19.6467C14.4407 18.4884 8.82705 19.9644 8.59108 20.0276C8.16471 20.1419 7.91112 20.5804 8.02549 21.0075C8.12149 21.3651 8.44465 21.6003 8.79752 21.6003C8.86633 21.6003 8.9359 21.5915 9.00555 21.5731C9.05918 21.5579 14.4639 20.1363 19.016 21.2043C19.4439 21.3043 19.8768 21.0379 19.9776 20.6075C20.0782 20.1779 19.8111 19.7475 19.3806 19.6467Z" fill="url(#paint6_linear)"/>
<path d="M27.2847 32.3637C27.4262 32.6405 27.7079 32.8005 27.999 32.8005C28.1206 32.8005 28.2454 32.7724 28.3615 32.7133C28.4086 32.6893 33.1175 30.2972 35.4399 29.5636C35.8607 29.4301 36.0943 28.9804 35.9607 28.5597C35.8278 28.1389 35.3815 27.9045 34.9567 28.0373C32.5103 28.8109 27.8335 31.1869 27.6351 31.2877C27.2415 31.4877 27.0847 31.9694 27.2847 32.3637Z" fill="url(#paint7_linear)"/>
<path d="M19.3806 24.4468C14.4407 23.2884 8.82705 24.7636 8.59108 24.8276C8.16471 24.942 7.91112 25.3805 8.02549 25.8076C8.12149 26.1652 8.44465 26.4012 8.79752 26.4012C8.86633 26.4012 8.9359 26.3917 9.00555 26.3732C9.05918 26.358 14.4639 24.9364 19.016 26.0044C19.4439 26.1044 19.8768 25.838 19.9776 25.4076C20.0782 24.978 19.8111 24.5476 19.3806 24.4468Z" fill="url(#paint8_linear)"/>
<path d="M19.3806 34.0465C14.4407 32.8873 8.82705 34.3641 8.59108 34.4273C8.16471 34.5417 7.91112 34.9802 8.02549 35.4073C8.12149 35.7649 8.44465 36.0009 8.79752 36.0009C8.86633 36.0009 8.9359 35.9914 9.00555 35.9729C9.05918 35.9577 14.4639 34.5361 19.016 35.6041C19.4439 35.7033 19.8768 35.4377 19.9776 35.0073C20.0782 34.5777 19.8111 34.1473 19.3806 34.0465Z" fill="url(#paint9_linear)"/>
<path d="M19.3806 29.2466C14.4407 28.0874 8.82705 29.5634 8.59108 29.6274C8.16471 29.7418 7.91112 30.1803 8.02549 30.6074C8.12149 30.965 8.44465 31.201 8.79752 31.201C8.86633 31.201 8.9359 31.1915 9.00555 31.173C9.05918 31.1578 14.4639 29.7362 19.016 30.8042C19.4439 30.9042 19.8768 30.6378 19.9776 30.2074C20.0782 29.7778 19.8111 29.3474 19.3806 29.2466Z" fill="url(#paint10_linear)"/>
<defs>
<linearGradient id="paint0_linear" x1="27.1978" y1="18.3998" x2="30.0663" y2="26.212" gradientUnits="userSpaceOnUse">
<stop stop-color="#FFB300"/>
<stop offset="0.7025" stop-color="#FF6600"/>
</linearGradient>
<linearGradient id="paint1_linear" x1="27.1978" y1="8.7998" x2="30.0663" y2="16.612" gradientUnits="userSpaceOnUse">
<stop stop-color="#FFB300"/>
<stop offset="0.7025" stop-color="#FF6600"/>
</linearGradient>
<linearGradient id="paint2_linear" x1="0" y1="0" x2="41.0664" y2="61.0043" gradientUnits="userSpaceOnUse">
<stop stop-color="#FFB300"/>
<stop offset="0.7025" stop-color="#FF6600"/>
</linearGradient>
<linearGradient id="paint3_linear" x1="27.1978" y1="13.5997" x2="30.0663" y2="21.4119" gradientUnits="userSpaceOnUse">
<stop stop-color="#FFB300"/>
<stop offset="0.7025" stop-color="#FF6600"/>
</linearGradient>
<linearGradient id="paint4_linear" x1="27.1978" y1="23.1996" x2="30.0663" y2="31.0118" gradientUnits="userSpaceOnUse">
<stop stop-color="#FFB300"/>
<stop offset="0.7025" stop-color="#FF6600"/>
</linearGradient>
<linearGradient id="paint5_linear" x1="7.99805" y1="14.4037" x2="8.58232" y2="18.7506" gradientUnits="userSpaceOnUse">
<stop stop-color="#FFB300"/>
<stop offset="0.7025" stop-color="#FF6600"/>
</linearGradient>
<linearGradient id="paint6_linear" x1="7.99805" y1="19.2045" x2="8.58214" y2="23.5507" gradientUnits="userSpaceOnUse">
<stop stop-color="#FFB300"/>
<stop offset="0.7025" stop-color="#FF6600"/>
</linearGradient>
<linearGradient id="paint7_linear" x1="27.1978" y1="28.0001" x2="30.0663" y2="35.8123" gradientUnits="userSpaceOnUse">
<stop stop-color="#FFB300"/>
<stop offset="0.7025" stop-color="#FF6600"/>
</linearGradient>
<linearGradient id="paint8_linear" x1="7.99805" y1="24.0044" x2="8.58261" y2="28.3523" gradientUnits="userSpaceOnUse">
<stop stop-color="#FFB300"/>
<stop offset="0.7025" stop-color="#FF6600"/>
</linearGradient>
<linearGradient id="paint9_linear" x1="7.99805" y1="33.6039" x2="8.58272" y2="37.9522" gradientUnits="userSpaceOnUse">
<stop stop-color="#FFB300"/>
<stop offset="0.7025" stop-color="#FF6600"/>
</linearGradient>
<linearGradient id="paint10_linear" x1="7.99805" y1="28.8038" x2="8.58279" y2="33.1524" gradientUnits="userSpaceOnUse">
<stop stop-color="#FFB300"/>
<stop offset="0.7025" stop-color="#FF6600"/>
</linearGradient>
</defs>
</svg>
