<svg width="48" height="48" viewBox="0 0 48 48" fill="none" xmlns="http://www.w3.org/2000/svg">
<path d="M43.2126 25.1709C43.6367 24.542 43.8846 23.7849 43.8846 22.9709V22.219C43.8846 20.0437 42.1147 18.2739 39.9395 18.2739C38.8541 18.2739 37.8698 18.7146 37.1558 19.4264C35.3083 13.9319 30.109 9.96313 24 9.96313C17.891 9.96313 12.6917 13.9319 10.8442 19.4264C10.1302 18.7146 9.14597 18.2739 8.06053 18.2739C5.88525 18.2739 4.11544 20.0437 4.11544 22.219V22.9709C4.11544 23.7849 4.36331 24.542 4.78744 25.1709C2.05659 25.7463 0 28.174 0 31.0735V32.961C0 33.4787 0.419813 33.8985 0.9375 33.8985H5.8125C6.33019 33.8985 6.75 33.4787 6.75 32.961C6.75 32.4434 6.33019 32.0235 5.8125 32.0235H1.875V31.0735C1.875 28.781 3.74006 26.9159 6.03253 26.9159H10.4696C10.8294 28.4985 11.4601 29.9794 12.311 31.3064L1.61419 42.0031C0.2445 43.3729 0.2445 45.6018 1.61428 46.9717C2.29922 47.6566 3.19875 47.999 4.09847 47.999C4.99819 47.999 5.89791 47.6565 6.58284 46.9717L12.48 41.0744C12.8461 40.7084 12.8461 40.1147 12.48 39.7485C12.1138 39.3825 11.5204 39.3825 11.1541 39.7485L5.25703 45.6458C4.61812 46.2846 3.57881 46.2845 2.94 45.6459C2.30128 45.0071 2.30128 43.9677 2.94 43.3288L13.4407 32.8283C15.9876 35.8154 19.7761 37.7131 24 37.7131C30.5933 37.7131 36.1266 33.0903 37.5304 26.9159H41.9675C44.2599 26.9159 46.125 28.781 46.125 31.0735V32.0235H37.3125C36.7948 32.0235 36.375 32.4434 36.375 32.961C36.375 33.4787 36.7948 33.8985 37.3125 33.8985H47.0625C47.5802 33.8985 48 33.4787 48 32.961V31.0735C48 28.174 45.9434 25.7463 43.2126 25.1709ZM10.1306 22.971C10.1306 24.1124 9.20203 25.041 8.06053 25.041C6.91903 25.041 5.99044 24.1124 5.99044 22.971V22.2191C5.99044 21.0776 6.91903 20.149 8.06053 20.149C9.20203 20.149 10.1306 21.0776 10.1306 22.2191V22.971ZM24 35.8381C17.3832 35.8381 12 30.4549 12 23.8381C12 17.2214 17.3832 11.8381 24 11.8381C30.6168 11.8381 36 17.2214 36 23.8381C36 30.4549 30.6168 35.8381 24 35.8381ZM42.0095 22.971C42.0095 24.1124 41.0809 25.041 39.9394 25.041C38.7979 25.041 37.8693 24.1124 37.8693 22.971V22.2191C37.8693 21.0776 38.7979 20.149 39.9394 20.149C41.0809 20.149 42.0095 21.0776 42.0095 22.2191V22.971Z" fill="url(#paint0_linear)"/>
<path d="M24 13.7131C18.417 13.7131 13.875 18.2551 13.875 23.8381C13.875 26.7359 15.099 29.353 17.0567 31.2003C17.0902 31.2365 17.1261 31.2706 17.1654 31.3016C18.9679 32.9535 21.3682 33.9631 24 33.9631C26.6318 33.9631 29.0321 32.9535 30.8346 31.3016C30.8739 31.2707 30.9098 31.2365 30.9433 31.2003C32.901 29.353 34.125 26.7359 34.125 23.8381C34.125 18.2552 29.583 13.7131 24 13.7131ZM24 32.0881C22.0722 32.0881 20.297 31.4234 18.8909 30.3112C19.887 28.4265 21.8282 27.2406 24 27.2406C26.1718 27.2406 28.113 28.4265 29.1091 30.3112C27.703 31.4234 25.9278 32.0881 24 32.0881ZM22.0244 23.39V22.6617C22.0244 21.5723 22.9106 20.6861 24 20.6861C25.0894 20.6861 25.9756 21.5723 25.9756 22.6617V23.39C25.9756 24.4794 25.0894 25.3656 24 25.3656C22.9106 25.3656 22.0244 24.4794 22.0244 23.39ZM30.4805 28.938C29.6216 27.5677 28.3645 26.5227 26.8932 25.9268C27.4884 25.2487 27.8506 24.3612 27.8506 23.3901V22.6618C27.8506 20.5386 26.1232 18.8112 24 18.8112C21.8768 18.8112 20.1494 20.5386 20.1494 22.6618V23.3901C20.1494 24.3612 20.5115 25.2487 21.1068 25.9268C19.6355 26.5228 18.3785 27.5677 17.5195 28.938C16.4118 27.5335 15.75 25.7617 15.75 23.8381C15.75 19.2891 19.451 15.5881 24 15.5881C28.549 15.5881 32.25 19.2891 32.25 23.8381C32.25 25.7617 31.5882 27.5335 30.4805 28.938Z" fill="url(#paint1_linear)"/>
<path d="M14.9878 37.2412C14.8134 37.0669 14.5715 36.9666 14.3249 36.9666C14.0784 36.9666 13.8365 37.0669 13.6621 37.2412C13.4879 37.4156 13.3875 37.6575 13.3875 37.9041C13.3875 38.1506 13.4878 38.3925 13.6621 38.5669C13.8365 38.7411 14.0784 38.8416 14.3249 38.8416C14.5715 38.8416 14.8134 38.7412 14.9878 38.5669C15.162 38.3925 15.2624 38.1506 15.2624 37.9041C15.2624 37.6575 15.1621 37.4156 14.9878 37.2412Z" fill="url(#paint2_linear)"/>
<path d="M24.019 0.000976562C23.5014 0.000976562 23.0815 0.420789 23.0815 0.938477V4.12823C23.0815 4.64601 23.5014 5.06573 24.019 5.06573C24.5367 5.06573 24.9565 4.64591 24.9565 4.12823V0.938477C24.9565 0.420789 24.5367 0.000976562 24.019 0.000976562Z" fill="url(#paint3_linear)"/>
<path d="M24.6815 6.55691C24.5072 6.38254 24.2662 6.28223 24.0188 6.28223C23.7721 6.28223 23.5304 6.38245 23.356 6.55691C23.1816 6.73138 23.0813 6.97316 23.0813 7.21973C23.0813 7.46629 23.1815 7.70817 23.356 7.88245C23.5304 8.05682 23.7721 8.15723 24.0188 8.15723C24.2663 8.15723 24.5072 8.05692 24.6815 7.88245C24.8559 7.70817 24.9563 7.46629 24.9563 7.21973C24.9563 6.97316 24.856 6.73129 24.6815 6.55691Z" fill="url(#paint4_linear)"/>
<path d="M31.9668 3.67855C31.6006 3.31255 31.0072 3.31255 30.6409 3.67855L28.9931 5.3263C28.627 5.6924 28.627 6.28602 28.9931 6.65221C29.1763 6.83521 29.4161 6.9268 29.6561 6.9268C29.8961 6.9268 30.1359 6.83521 30.319 6.65221L31.9668 5.00446C32.3329 4.63837 32.3329 4.04474 31.9668 3.67855Z" fill="url(#paint5_linear)"/>
<path d="M19.0226 5.33751L17.359 3.67391C16.9928 3.30791 16.3994 3.30791 16.0331 3.67391C15.667 4.04001 15.667 4.63363 16.0331 4.99982L17.6968 6.66341C17.8799 6.84641 18.1198 6.93801 18.3597 6.93801C18.5996 6.93801 18.8395 6.84641 19.0226 6.66341C19.3887 6.29732 19.3887 5.7037 19.0226 5.33751Z" fill="url(#paint6_linear)"/>
<defs>
<linearGradient id="paint0_linear" x1="0" y1="9.96313" x2="29.1708" y2="64.6489" gradientUnits="userSpaceOnUse">
<stop stop-color="#FFB300"/>
<stop offset="0.7025" stop-color="#FF6600"/>
</linearGradient>
<linearGradient id="paint1_linear" x1="13.875" y1="13.7131" x2="31.1997" y2="39.4493" gradientUnits="userSpaceOnUse">
<stop stop-color="#FFB300"/>
<stop offset="0.7025" stop-color="#FF6600"/>
</linearGradient>
<linearGradient id="paint2_linear" x1="13.3875" y1="36.9666" x2="14.9916" y2="39.3495" gradientUnits="userSpaceOnUse">
<stop stop-color="#FFB300"/>
<stop offset="0.7025" stop-color="#FF6600"/>
</linearGradient>
<linearGradient id="paint3_linear" x1="23.0815" y1="0.000976563" x2="27.0311" y2="2.17303" gradientUnits="userSpaceOnUse">
<stop stop-color="#FFB300"/>
<stop offset="0.7025" stop-color="#FF6600"/>
</linearGradient>
<linearGradient id="paint4_linear" x1="23.0813" y1="6.28223" x2="24.6854" y2="8.6652" gradientUnits="userSpaceOnUse">
<stop stop-color="#FFB300"/>
<stop offset="0.7025" stop-color="#FF6600"/>
</linearGradient>
<linearGradient id="paint5_linear" x1="28.7186" y1="3.40405" x2="31.7324" y2="7.88122" gradientUnits="userSpaceOnUse">
<stop stop-color="#FFB300"/>
<stop offset="0.7025" stop-color="#FF6600"/>
</linearGradient>
<linearGradient id="paint6_linear" x1="15.7585" y1="3.39941" x2="18.7859" y2="7.89672" gradientUnits="userSpaceOnUse">
<stop stop-color="#FFB300"/>
<stop offset="0.7025" stop-color="#FF6600"/>
</linearGradient>
</defs>
</svg>
