<svg width="48" height="48" viewBox="0 0 48 48" fill="none" xmlns="http://www.w3.org/2000/svg">
<path d="M24 12.4914L29.6995 7.74193H37.1613V0H18.5807V7.74193H24V12.4914ZM20.1291 6.19355V1.54839H35.6129V6.19355H29.1393L25.5484 9.18599V6.19355H20.1291Z" fill="url(#paint0_linear)"/>
<path d="M21.6774 3.0968H23.2258V4.64519H21.6774V3.0968Z" fill="url(#paint1_linear)"/>
<path d="M24.7742 3.0968H30.9677V4.64519H24.7742V3.0968Z" fill="url(#paint2_linear)"/>
<path d="M32.5161 3.0968H34.0645V4.64519H32.5161V3.0968Z" fill="url(#paint3_linear)"/>
<path d="M39.4102 46.4516L38.7841 40.1844C41.3691 39.7757 43.3548 37.5374 43.3548 34.8387V24.7742H40.2581V23.7044C40.2581 22.652 39.6797 21.7069 38.7497 21.2223C39.6744 20.3729 40.2581 19.1583 40.2581 17.8065V16.2581C40.2581 13.6962 38.1748 11.6129 35.6129 11.6129C33.051 11.6129 30.9677 13.6962 30.9677 16.2581V17.8065C30.9677 19.8107 32.2458 21.5171 34.0282 22.1674L29.873 26.3226H25.5314C25.4448 25.032 24.5583 23.907 23.3025 23.5479L20.129 22.6421V21.2593C21.0767 20.4084 21.6774 19.1783 21.6774 17.8065V16.2581C21.6774 13.6962 19.5941 11.6129 17.0323 11.6129C14.4704 11.6129 12.3871 13.6962 12.3871 16.2581V17.8065C12.3871 19.1776 12.9878 20.4076 13.9355 21.2593V22.6429L10.762 23.5487C9.43964 23.9255 8.51613 25.1503 8.51613 26.5263V29.4194H5.41935V34.0645H6.96774V46.4516H0V48H48V46.4516H39.4102ZM32.5161 34.0645V30.5141L38.002 25.0282C38.3986 24.6317 38.6344 24.0991 38.6874 23.5434C38.6942 23.5974 38.7097 23.6485 38.7097 23.7044V33.2903C38.7097 34.5707 37.6675 35.6129 36.3871 35.6129H30.1935V34.0645H32.5161ZM30.1935 40.2581H34.1382L34.7574 46.4516H30.1935V40.2581ZM35.6942 40.2581H37.235L37.8542 46.4516H36.3134L35.6942 40.2581ZM40.2581 33.2903V26.3226H41.8064V34.8387C41.8064 36.973 40.0698 38.7097 37.9355 38.7097H30.1935V37.1613H36.3871C38.5214 37.1613 40.2581 35.4247 40.2581 33.2903ZM32.5161 17.8065V16.2581C32.5161 14.5502 33.905 13.1613 35.6129 13.1613C37.3208 13.1613 38.7097 14.5502 38.7097 16.2581V17.8065C38.7097 19.5144 37.3208 20.9032 35.6129 20.9032C33.905 20.9032 32.5161 19.5144 32.5161 17.8065ZM30.5141 27.871L35.6794 22.7057C35.8412 22.5439 36.065 22.4516 36.2933 22.4516C36.7719 22.4516 37.1613 22.841 37.1613 23.3196C37.1613 23.5479 37.069 23.7717 36.9073 23.9335L31.4214 29.4194H23.2258C22.7986 29.4194 22.4516 29.0723 22.4516 28.6452C22.4516 28.218 22.7986 27.871 23.2258 27.871H30.5141ZM13.9355 16.2581C13.9355 14.5502 15.3243 13.1613 17.0323 13.1613C18.7402 13.1613 20.129 14.5502 20.129 16.2581V17.8065C20.129 19.5144 18.7402 20.9032 17.0323 20.9032C15.3243 20.9032 13.9355 19.5144 13.9355 17.8065V16.2581ZM17.0323 22.4516C17.5759 22.4516 18.0953 22.3526 18.5806 22.1806V23.0122C18.3886 23.3086 17.8552 24 17.0323 24C16.2093 24 15.6759 23.3086 15.4839 23.0122V22.1806C15.9693 22.3526 16.4887 22.4516 17.0323 22.4516ZM10.0645 26.5263C10.0645 25.838 10.5268 25.2263 11.1872 25.0373L14.3766 24.1263C14.8257 24.7115 15.6997 25.5484 17.0323 25.5484C18.3648 25.5484 19.2388 24.7115 19.6879 24.1255L22.8773 25.0366C23.4704 25.2063 23.8839 25.7219 23.9667 26.3218H23.2258C21.9454 26.3218 20.9032 27.3641 20.9032 28.6444C20.9032 28.917 20.9588 29.1755 21.0457 29.4186H10.0645V26.5263ZM6.96774 30.9678H30.9677V32.5161H6.96774V30.9678ZM8.51613 37.1613H10.8387V35.6129H8.51613V34.0645H28.6452V35.6129H12.3871V37.1613H28.6452V46.4516H26.8012L25.2528 43.3549H11.9085L10.3601 46.4516H8.51613V37.1613ZM25.0698 46.4516H12.0915L12.8657 44.9032H24.2956L25.0698 46.4516Z" fill="url(#paint4_linear)"/>
<defs>
<linearGradient id="paint0_linear" x1="18.5807" y1="0" x2="27.2463" y2="19.148" gradientUnits="userSpaceOnUse">
<stop stop-color="#FFB300"/>
<stop offset="0.7025" stop-color="#FF6600"/>
</linearGradient>
<linearGradient id="paint1_linear" x1="21.6774" y1="3.0968" x2="23.0021" y2="5.06468" gradientUnits="userSpaceOnUse">
<stop stop-color="#FFB300"/>
<stop offset="0.7025" stop-color="#FF6600"/>
</linearGradient>
<linearGradient id="paint2_linear" x1="24.7742" y1="3.0968" x2="25.2422" y2="5.87767" gradientUnits="userSpaceOnUse">
<stop stop-color="#FFB300"/>
<stop offset="0.7025" stop-color="#FF6600"/>
</linearGradient>
<linearGradient id="paint3_linear" x1="32.5161" y1="3.0968" x2="33.8408" y2="5.06467" gradientUnits="userSpaceOnUse">
<stop stop-color="#FFB300"/>
<stop offset="0.7025" stop-color="#FF6600"/>
</linearGradient>
<linearGradient id="paint4_linear" x1="0" y1="11.6129" x2="27.2078" y2="64.9299" gradientUnits="userSpaceOnUse">
<stop stop-color="#FFB300"/>
<stop offset="0.7025" stop-color="#FF6600"/>
</linearGradient>
</defs>
</svg>
