<svg width="48" height="45" viewBox="0 0 48 45" fill="none" xmlns="http://www.w3.org/2000/svg">
<path d="M46.8073 16.0203H46.1697C45.5486 12.8688 42.3627 7.32016 40.9524 4.97C41.6136 4.51518 42.0483 3.75356 42.0483 2.89213C42.0483 1.50228 40.9175 0.37146 39.5276 0.37146C38.1378 0.37146 37.007 1.50218 37.007 2.89213C37.007 3.75356 37.4417 4.51518 38.1031 4.97C36.6928 7.32016 33.507 12.8688 32.8858 16.0203H32.2483C31.723 16.0203 31.297 16.4462 31.297 16.9716C31.297 21.5101 34.9893 25.2024 39.5278 25.2024C44.0663 25.2024 47.7586 21.5101 47.7586 16.9716C47.7586 16.4462 47.3326 16.0203 46.8073 16.0203ZM39.5277 2.27425C39.8684 2.27425 40.1456 2.55147 40.1456 2.89213C40.1456 3.23278 39.8684 3.50991 39.5277 3.50991C39.1871 3.50991 38.9099 3.23278 38.9099 2.89213C38.9099 2.55147 39.187 2.27425 39.5277 2.27425ZM39.5262 6.29456C41.1361 9.01195 43.6223 13.5384 44.2338 16.0203H34.8246C35.4019 13.6965 37.6388 9.46659 39.5262 6.29456ZM39.5277 23.2997C36.3617 23.2997 33.7312 20.9626 33.271 17.923H45.7846C45.3242 20.9626 42.6939 23.2997 39.5277 23.2997Z" fill="url(#paint0_linear)"/>
<path d="M32.3473 38.7993H29.8322V36.3832C29.8322 35.8577 29.4062 35.4318 28.8808 35.4318H26.4647V8.85646C27.087 8.24138 27.4878 7.40271 27.5343 6.47207L31.557 5.60645C32.0707 5.49591 32.3975 4.98988 32.287 4.47619C32.1764 3.96251 31.6703 3.63603 31.1567 3.74629L27.1246 4.61406C26.5197 3.46561 25.3145 2.6803 23.9288 2.6803C22.0097 2.6803 20.4363 4.18544 20.3256 6.07713L10.2664 8.24176C9.8075 7.61408 9.06621 7.20534 8.2309 7.20534C6.84105 7.20534 5.71024 8.33606 5.71024 9.726C5.71024 10.5874 6.14492 11.3491 6.80626 11.8039C5.39589 14.154 2.21014 19.7027 1.589 22.8541H0.951535C0.42591 22.8541 0 23.28 0 23.8055C0 28.3439 3.69234 32.0363 8.23081 32.0363C12.7693 32.0363 16.4616 28.3439 16.4616 23.8055C16.4616 23.28 16.0357 22.8541 15.5103 22.8541H14.8728C14.2517 19.7026 11.0658 14.154 9.65555 11.8039C10.2221 11.4143 10.6219 10.7995 10.725 10.0895L20.719 7.93897C20.8948 8.27981 21.1227 8.5895 21.3929 8.85665V35.4321H18.9769C18.4514 35.4321 18.0255 35.858 18.0255 36.3834V38.7995H15.5104C14.9849 38.7995 14.559 39.2255 14.559 39.7509V43.3161C14.559 43.8415 14.9849 44.2674 15.5104 44.2674H32.3473C32.8727 44.2674 33.2987 43.8415 33.2987 43.3161V39.7506C33.2987 39.2252 32.8727 38.7993 32.3473 38.7993ZM8.23081 9.10794C8.57146 9.10794 8.84869 9.38516 8.84869 9.72582C8.84869 10.0665 8.57146 10.3436 8.23081 10.3436C7.89016 10.3436 7.61293 10.0665 7.61293 9.72582C7.61293 9.38516 7.89016 9.10794 8.23081 9.10794ZM8.23081 30.1334C5.06475 30.1334 2.43429 27.7963 1.97406 24.7566H14.4876C14.0273 27.7963 11.3969 30.1334 8.23081 30.1334ZM12.9369 22.8539H3.5277C4.1051 20.5302 6.34201 16.3003 8.22941 13.1282C9.83921 15.8455 12.3254 20.372 12.9369 22.8539ZM23.9289 4.58281C24.8703 4.58281 25.6361 5.34863 25.6361 6.29009C25.6361 7.23155 24.8702 7.99736 23.9289 7.99736C22.9875 7.99736 22.2216 7.23155 22.2216 6.29009C22.2216 5.34863 22.9874 4.58281 23.9289 4.58281ZM24.5621 9.84353V35.4319H23.2956V9.84344C23.5014 9.8801 23.7127 9.90025 23.9289 9.90025C24.1452 9.90025 24.3564 9.88001 24.5621 9.84353ZM19.9281 37.3345H27.9295V38.7993H19.9281V37.3345ZM31.396 42.3647H16.4617V40.702H31.396V42.3647Z" fill="url(#paint1_linear)"/>
<path d="M35.9515 3.74663C35.8409 3.23295 35.3348 2.90619 34.8211 3.01673L34.1279 3.16588C33.6143 3.27642 33.2874 3.78245 33.398 4.29614C33.4941 4.74238 33.8885 5.0475 34.3272 5.0475C34.3935 5.0475 34.4609 5.0406 34.5283 5.02604L35.2216 4.87689C35.7351 4.76636 36.062 4.26032 35.9515 3.74663Z" fill="url(#paint2_linear)"/>
<defs>
<linearGradient id="paint0_linear" x1="31.297" y1="0.37146" x2="54.2237" y2="22.9501" gradientUnits="userSpaceOnUse">
<stop stop-color="#FFB300"/>
<stop offset="0.7025" stop-color="#FF6600"/>
</linearGradient>
<linearGradient id="paint1_linear" x1="0" y1="2.6803" x2="37.8317" y2="47.6791" gradientUnits="userSpaceOnUse">
<stop stop-color="#FFB300"/>
<stop offset="0.7025" stop-color="#FF6600"/>
</linearGradient>
<linearGradient id="paint2_linear" x1="33.3765" y1="2.99524" x2="34.9482" y2="5.94918" gradientUnits="userSpaceOnUse">
<stop stop-color="#FFB300"/>
<stop offset="0.7025" stop-color="#FF6600"/>
</linearGradient>
</defs>
</svg>
