<svg width="48" height="48" viewBox="0 0 48 48" fill="none" xmlns="http://www.w3.org/2000/svg">
<path d="M23.5659 40.5741C23.3915 40.3997 23.1496 40.2993 22.9031 40.2993C22.6565 40.2993 22.4146 40.3996 22.2403 40.5741C22.0659 40.7484 21.9656 40.9903 21.9656 41.2368C21.9656 41.4844 22.0659 41.7252 22.2403 41.8996C22.4146 42.0749 22.6565 42.1743 22.9031 42.1743C23.1496 42.1743 23.3915 42.0749 23.5659 41.8996C23.7403 41.7252 23.8406 41.4835 23.8406 41.2368C23.8406 40.9903 23.7402 40.7484 23.5659 40.5741Z" fill="url(#paint0_linear)"/>
<path d="M28.0295 31.9255V25.0272C28.0295 24.7157 27.8748 24.4245 27.6167 24.2503C27.3586 24.076 27.0308 24.0413 26.7417 24.1575L10.5874 30.6635H5.38433C2.41546 30.6635 0 33.0789 0 36.048C0 39.0171 2.41546 41.4325 5.38452 41.4325H6.00411V47.0624C6.00411 47.5801 6.42383 47.9999 6.94161 47.9999H10.7688C11.2866 47.9999 11.7063 47.5801 11.7063 47.0624V41.8848L26.7422 47.9322C26.855 47.9776 26.9738 48 27.0919 48C27.2764 48 27.4596 47.9455 27.6169 47.8393C27.8749 47.665 28.0295 47.3738 28.0295 47.0625V40.1643C29.9096 39.7365 31.3175 38.0526 31.3175 36.0449C31.3175 34.0373 29.9096 32.3532 28.0295 31.9255ZM9.83126 46.1249H7.87911V41.4324H9.83135V46.1249H9.83126ZM9.83145 39.5574H5.38452C3.44934 39.5574 1.875 37.9831 1.875 36.048C1.875 34.1128 3.44934 32.5385 5.38452 32.5385H9.83182L9.83145 39.5574ZM26.1546 45.6748H26.1545L11.7068 39.8639V32.234L21.9656 28.1024V37.4062C21.9656 37.9238 22.3853 38.3437 22.9031 38.3437C23.4208 38.3437 23.8406 37.9238 23.8406 37.4062V27.3473L26.1546 26.4153V45.6748ZM28.0295 38.1997V33.89C28.8602 34.2528 29.4425 35.0819 29.4425 36.0448C29.4425 37.0077 28.8603 37.8368 28.0295 38.1997Z" fill="url(#paint1_linear)"/>
<path d="M40.261 35.1351H34.9531C34.4353 35.1351 34.0156 35.5549 34.0156 36.0726C34.0156 36.5903 34.4353 37.0101 34.9531 37.0101H40.261C40.7788 37.0101 41.1985 36.5903 41.1985 36.0726C41.1985 35.5549 40.7788 35.1351 40.261 35.1351Z" fill="url(#paint2_linear)"/>
<path d="M35.908 28.2653C35.5419 27.8993 34.9483 27.8993 34.5821 28.2653L32.7511 30.0963C32.385 30.4624 32.385 31.056 32.7511 31.4222C32.9343 31.6052 33.1742 31.6968 33.4141 31.6968C33.654 31.6968 33.894 31.6052 34.077 31.4222L35.908 29.5912C36.2741 29.2252 36.2741 28.6315 35.908 28.2653Z" fill="url(#paint3_linear)"/>
<path d="M35.9768 42.4663L34.0846 40.5741C33.7185 40.2081 33.1249 40.2081 32.7587 40.5741C32.3926 40.9402 32.3926 41.5338 32.7587 41.9L34.6509 43.7922C34.834 43.9752 35.0739 44.0668 35.3139 44.0668C35.5538 44.0668 35.7938 43.9752 35.9768 43.7922C36.3428 43.4261 36.3428 42.8325 35.9768 42.4663Z" fill="url(#paint4_linear)"/>
<path d="M44.2499 0H26.8124C24.7447 0 23.0625 1.68225 23.0625 3.74999V4.12499H7.31249C6.07181 4.12499 5.0625 5.13439 5.0625 6.37498V21.1874C5.0625 22.428 6.07181 23.4374 7.31249 23.4374H8.28121V26.3125C8.28121 26.6917 8.50968 27.0335 8.85993 27.1786C8.9759 27.2266 9.09768 27.25 9.21852 27.25C9.46246 27.25 9.70227 27.1547 9.88161 26.9754L13.4195 23.4374H32.0418C33.2825 23.4374 34.2918 22.428 34.2918 21.1874V18.375H44.2499C46.3176 18.375 47.9999 16.6927 47.9999 14.625V3.74999C47.9998 1.68225 46.3176 0 44.2499 0ZM32.4168 21.1874C32.4168 21.3943 32.2486 21.5624 32.0418 21.5624H13.0312C12.7826 21.5624 12.5441 21.6613 12.3683 21.837L10.1563 24.0492V22.4999C10.1563 21.9823 9.73658 21.5624 9.2188 21.5624H7.31249C7.10568 21.5624 6.9375 21.3943 6.9375 21.1874V6.37498C6.9375 6.16817 7.10568 5.99998 7.31249 5.99998H23.0625V14.625C23.0625 16.6927 24.7447 18.375 26.8124 18.375H32.4168V21.1874ZM46.1249 14.625C46.1249 15.6588 45.2838 16.5 44.2499 16.5H26.8124C25.7786 16.5 24.9375 15.6588 24.9375 14.625V3.74999C24.9375 2.71612 25.7786 1.875 26.8124 1.875H44.2499C45.2838 1.875 46.1249 2.71612 46.1249 3.74999V14.625Z" fill="url(#paint5_linear)"/>
<path d="M39.2976 8.37561L32.8813 4.67118C32.5913 4.50365 32.2339 4.50365 31.9438 4.67118C31.6538 4.83862 31.4751 5.14818 31.4751 5.48305V12.8918C31.4751 13.2267 31.6538 13.5363 31.9438 13.7037C32.0889 13.7875 32.2507 13.8293 32.4126 13.8293C32.5745 13.8293 32.7363 13.7875 32.8813 13.7037L39.2976 9.99926C39.5876 9.83182 39.7663 9.52226 39.7663 9.18739C39.7663 8.85251 39.5877 8.54305 39.2976 8.37561ZM33.3501 11.2681V7.10689L36.9538 9.18748L33.3501 11.2681Z" fill="url(#paint6_linear)"/>
<path d="M20.1103 9.84363H10.7353C10.2176 9.84363 9.79785 10.2634 9.79785 10.7811C9.79785 11.2988 10.2176 11.7186 10.7353 11.7186H20.1103C20.6281 11.7186 21.0478 11.2988 21.0478 10.7811C21.0478 10.2634 20.6281 9.84363 20.1103 9.84363Z" fill="url(#paint7_linear)"/>
<path d="M20.773 15.3683C20.5987 15.1938 20.3568 15.0936 20.1102 15.0936C19.8637 15.0936 19.6218 15.1938 19.4474 15.3683C19.273 15.5427 19.1727 15.7846 19.1727 16.0311C19.1727 16.2777 19.273 16.5196 19.4474 16.6938C19.6218 16.8682 19.8637 16.9686 20.1102 16.9686C20.3577 16.9686 20.5987 16.8683 20.773 16.6938C20.9474 16.5196 21.0477 16.2777 21.0477 16.0311C21.0477 15.7846 20.9474 15.5427 20.773 15.3683Z" fill="url(#paint8_linear)"/>
<path d="M16.5937 15.0936H10.7353C10.2176 15.0936 9.79785 15.5134 9.79785 16.0311C9.79785 16.5488 10.2176 16.9686 10.7353 16.9686H16.5937C17.1115 16.9686 17.5312 16.5488 17.5312 16.0311C17.5312 15.5134 17.1115 15.0936 16.5937 15.0936Z" fill="url(#paint9_linear)"/>
<defs>
<linearGradient id="paint0_linear" x1="21.9656" y1="40.2993" x2="23.5697" y2="42.6823" gradientUnits="userSpaceOnUse">
<stop stop-color="#FFB300"/>
<stop offset="0.7025" stop-color="#FF6600"/>
</linearGradient>
<linearGradient id="paint1_linear" x1="0" y1="24.0897" x2="17.953" y2="59.0212" gradientUnits="userSpaceOnUse">
<stop stop-color="#FFB300"/>
<stop offset="0.7025" stop-color="#FF6600"/>
</linearGradient>
<linearGradient id="paint2_linear" x1="34.0156" y1="35.1351" x2="34.6059" y2="38.4942" gradientUnits="userSpaceOnUse">
<stop stop-color="#FFB300"/>
<stop offset="0.7025" stop-color="#FF6600"/>
</linearGradient>
<linearGradient id="paint3_linear" x1="32.4766" y1="27.9908" x2="35.6471" y2="32.7008" gradientUnits="userSpaceOnUse">
<stop stop-color="#FFB300"/>
<stop offset="0.7025" stop-color="#FF6600"/>
</linearGradient>
<linearGradient id="paint4_linear" x1="32.4841" y1="40.2996" x2="35.7072" y2="45.0874" gradientUnits="userSpaceOnUse">
<stop stop-color="#FFB300"/>
<stop offset="0.7025" stop-color="#FF6600"/>
</linearGradient>
<linearGradient id="paint5_linear" x1="5.0625" y1="0" x2="23.2445" y2="42.5586" gradientUnits="userSpaceOnUse">
<stop stop-color="#FFB300"/>
<stop offset="0.7025" stop-color="#FF6600"/>
</linearGradient>
<linearGradient id="paint6_linear" x1="31.4751" y1="4.54553" x2="39.7164" y2="15.4793" gradientUnits="userSpaceOnUse">
<stop stop-color="#FFB300"/>
<stop offset="0.7025" stop-color="#FF6600"/>
</linearGradient>
<linearGradient id="paint7_linear" x1="9.79785" y1="9.84363" x2="10.1815" y2="13.2634" gradientUnits="userSpaceOnUse">
<stop stop-color="#FFB300"/>
<stop offset="0.7025" stop-color="#FF6600"/>
</linearGradient>
<linearGradient id="paint8_linear" x1="19.1727" y1="15.0936" x2="20.7769" y2="17.4766" gradientUnits="userSpaceOnUse">
<stop stop-color="#FFB300"/>
<stop offset="0.7025" stop-color="#FF6600"/>
</linearGradient>
<linearGradient id="paint9_linear" x1="9.79785" y1="15.0936" x2="10.3484" y2="18.4666" gradientUnits="userSpaceOnUse">
<stop stop-color="#FFB300"/>
<stop offset="0.7025" stop-color="#FF6600"/>
</linearGradient>
</defs>
</svg>
