<svg width="48" height="43" viewBox="0 0 48 43" fill="none" xmlns="http://www.w3.org/2000/svg">
<mask id="path-1-outside-1" maskUnits="userSpaceOnUse" x="0" y="0" width="48" height="43" fill="black">
<rect fill="white" width="48" height="43"/>
<path d="M40.005 14.7493C39.1389 14.4161 38.2149 14.1138 37.2433 13.8425C37.4941 12.8655 37.6943 11.914 37.839 10.9973C38.5915 6.2257 37.7599 2.87852 35.4976 1.57232C34.8399 1.1926 34.0841 1 33.2512 1C30.6203 1 27.2961 2.95388 23.9424 6.2535C23.2098 5.53399 22.4739 4.87311 21.7403 4.27985C17.9843 1.24231 14.6695 0.288814 12.4074 1.59502C10.9535 2.43441 10.0693 4.14861 9.85053 6.55208C9.81373 6.95578 10.1112 7.31279 10.5149 7.34949C10.9199 7.38687 11.2755 7.08878 11.3123 6.68508C11.4335 5.3547 11.849 3.61231 13.1412 2.86629C14.8157 1.89928 17.6136 2.83057 20.8172 5.42115C21.5162 5.98642 22.218 6.61677 22.9175 7.30339C21.5109 8.80005 20.1111 10.5226 18.767 12.4263C16.4026 12.6415 14.1505 13.0026 12.0837 13.4978C11.7218 12.0909 11.4732 10.7484 11.3506 9.50223C11.311 9.09883 10.9534 8.80406 10.5483 8.84369C10.1449 8.88333 9.85004 9.24259 9.88977 9.64599C10.0195 10.9646 10.282 12.3829 10.6646 13.8672C9.72546 14.132 8.83156 14.4262 7.99178 14.7492C3.48294 16.4833 1 18.8771 1 21.4894C1 24.1017 3.48294 26.4955 7.99158 28.2296C8.85769 28.5627 9.78173 28.865 10.7533 29.1363C10.5025 30.1134 10.3023 31.0648 10.1576 31.9815C9.40515 36.7532 10.2367 40.1003 12.4991 41.4065C13.1567 41.7863 13.9125 41.9789 14.7455 41.9789C17.346 41.9789 20.6243 40.0689 23.9387 36.8379C24.6487 37.5314 25.3617 38.1698 26.0725 38.7445C28.7306 40.8942 31.1672 42.0001 33.1666 42C33.9924 41.9999 34.7441 41.8111 35.4054 41.4293C37.6677 40.1231 38.4993 36.776 37.7468 32.0044C37.6022 31.0877 37.402 30.1364 37.1512 29.1594C38.6621 28.7433 40.0519 28.2532 41.2828 27.6953C41.6521 27.528 41.8157 27.0931 41.6484 26.7238C41.481 26.3546 41.046 26.1909 40.6769 26.3583C39.5111 26.8866 38.1933 27.3517 36.7582 27.7472C36.1648 25.7644 35.3746 23.6944 34.4117 21.6005C35.4179 19.4355 36.2403 17.2941 36.8528 15.2455C42.3004 16.7709 45.5286 19.1799 45.5286 21.4894C45.5286 22.9816 44.2274 24.2127 43.1358 24.9826C42.8046 25.2163 42.7255 25.6742 42.9591 26.0055C43.1928 26.3369 43.6507 26.4159 43.982 26.1823C45.9542 24.7911 46.9966 23.1683 46.9966 21.4894C46.9966 18.8771 44.5137 16.4833 40.005 14.7493ZM33.2511 2.46807C33.823 2.46807 34.3319 2.59442 34.7635 2.84368C36.4381 3.81059 37.0306 6.69917 36.3887 10.7687C36.2512 11.6404 36.0609 12.5458 35.8222 13.4765C33.7467 12.9845 31.4868 12.6271 29.1153 12.4162C27.7847 10.533 26.3882 8.81091 24.9682 7.30242C25.2281 7.0462 25.4881 6.79763 25.7476 6.55844C28.6104 3.92069 31.2751 2.46807 33.2511 2.46807ZM23.9445 8.35486C25.052 9.53531 26.1464 10.8521 27.2056 12.2794C26.1517 12.222 25.0808 12.1922 23.9983 12.1922C22.8796 12.1922 21.773 12.2237 20.6851 12.2849C21.7428 10.86 22.8387 9.53785 23.9445 8.35486ZM23.9393 34.7449C22.7925 33.5294 21.6594 32.167 20.5643 30.6868C21.6911 30.7528 22.8381 30.7866 23.9983 30.7866C25.1158 30.7866 26.223 30.754 27.3131 30.6918C26.219 32.166 25.084 33.5309 23.9393 34.7449ZM23.9983 29.3186C22.4212 29.3186 20.9079 29.2576 19.4658 29.1441C18.6557 27.9622 17.8721 26.719 17.1261 25.4267C16.3918 24.155 15.7164 22.8718 15.1045 21.5948C15.7397 20.2579 16.446 18.9122 17.218 17.5748C17.9657 16.2799 18.7594 15.0242 19.5841 13.8259C20.9908 13.7184 22.4642 13.6602 23.9983 13.6602C25.493 13.6602 26.9299 13.7154 28.3038 13.8177C29.1292 15.0182 29.9274 16.2824 30.6867 17.5975C31.4549 18.9282 32.158 20.2672 32.7908 21.5976C32.1822 22.8641 31.5096 24.1379 30.7787 25.4039C30.0325 26.6964 29.2403 27.9499 28.4172 29.1462C26.977 29.2595 25.4979 29.3186 23.9983 29.3186ZM17.5769 28.9609C15.771 28.7523 14.0946 28.459 12.5657 28.0988C13.03 26.5536 13.6185 24.9514 14.3203 23.3239C14.7997 24.272 15.3115 25.2199 15.8548 26.1607C16.4094 27.1216 16.985 28.0565 17.5769 28.9609ZM17.6933 14.0043C17.0953 14.9162 16.5113 15.8629 15.9467 16.8408C15.3661 17.8465 14.8214 18.8578 14.3146 19.8676C13.5765 18.1728 12.9584 16.5034 12.476 14.9011C14.0617 14.5234 15.8075 14.2177 17.6933 14.0043ZM2.46798 21.4894C2.46798 19.1923 5.66171 16.7967 11.0563 15.2701C11.6665 17.3059 12.4853 19.4411 13.4839 21.5968C12.5235 23.6874 11.7355 25.7538 11.1436 27.7334C5.69616 26.208 2.46798 23.799 2.46798 21.4894ZM14.7455 40.5108C14.1736 40.5108 13.6647 40.3844 13.2331 40.1352C11.5585 39.1683 10.966 36.2797 11.6079 32.2102C11.7454 31.3385 11.9357 30.433 12.1744 29.5023C14.1824 29.9784 16.3631 30.3284 18.6505 30.5416C20.0158 32.48 21.4512 34.249 22.9105 35.7918C22.6899 36.0072 22.4693 36.2174 22.249 36.4204C19.3862 39.0583 16.7215 40.5108 14.7455 40.5108ZM36.2968 32.233C36.9387 36.3025 36.3462 39.1911 34.6716 40.158C32.9968 41.1248 30.1992 40.1936 26.9956 37.6031C26.321 37.0576 25.6437 36.4515 24.9686 35.7927C26.4132 34.2682 27.8519 32.5041 29.2319 30.5492C31.5251 30.3387 33.7163 29.9917 35.7291 29.5207C35.9684 30.453 36.1591 31.3599 36.2968 32.233ZM35.3348 28.1077C33.7627 28.473 32.0748 28.7604 30.3105 28.9635C30.906 28.055 31.4875 27.1121 32.0499 26.138C32.5898 25.2028 33.0983 24.2628 33.5745 23.3237C34.2786 24.9541 34.8691 26.5594 35.3348 28.1077ZM33.5813 19.8728C33.0771 18.8688 32.5353 17.8634 31.958 16.8635C31.3886 15.8773 30.7974 14.9182 30.1889 13.9914C32.083 14.2014 33.8369 14.5045 35.4309 14.8801C34.946 16.4942 34.3248 18.1706 33.5813 19.8728Z"/>
</mask>
<path d="M40.005 14.7493C39.1389 14.4161 38.2149 14.1138 37.2433 13.8425C37.4941 12.8655 37.6943 11.914 37.839 10.9973C38.5915 6.2257 37.7599 2.87852 35.4976 1.57232C34.8399 1.1926 34.0841 1 33.2512 1C30.6203 1 27.2961 2.95388 23.9424 6.2535C23.2098 5.53399 22.4739 4.87311 21.7403 4.27985C17.9843 1.24231 14.6695 0.288814 12.4074 1.59502C10.9535 2.43441 10.0693 4.14861 9.85053 6.55208C9.81373 6.95578 10.1112 7.31279 10.5149 7.34949C10.9199 7.38687 11.2755 7.08878 11.3123 6.68508C11.4335 5.3547 11.849 3.61231 13.1412 2.86629C14.8157 1.89928 17.6136 2.83057 20.8172 5.42115C21.5162 5.98642 22.218 6.61677 22.9175 7.30339C21.5109 8.80005 20.1111 10.5226 18.767 12.4263C16.4026 12.6415 14.1505 13.0026 12.0837 13.4978C11.7218 12.0909 11.4732 10.7484 11.3506 9.50223C11.311 9.09883 10.9534 8.80406 10.5483 8.84369C10.1449 8.88333 9.85004 9.24259 9.88977 9.64599C10.0195 10.9646 10.282 12.3829 10.6646 13.8672C9.72546 14.132 8.83156 14.4262 7.99178 14.7492C3.48294 16.4833 1 18.8771 1 21.4894C1 24.1017 3.48294 26.4955 7.99158 28.2296C8.85769 28.5627 9.78173 28.865 10.7533 29.1363C10.5025 30.1134 10.3023 31.0648 10.1576 31.9815C9.40515 36.7532 10.2367 40.1003 12.4991 41.4065C13.1567 41.7863 13.9125 41.9789 14.7455 41.9789C17.346 41.9789 20.6243 40.0689 23.9387 36.8379C24.6487 37.5314 25.3617 38.1698 26.0725 38.7445C28.7306 40.8942 31.1672 42.0001 33.1666 42C33.9924 41.9999 34.7441 41.8111 35.4054 41.4293C37.6677 40.1231 38.4993 36.776 37.7468 32.0044C37.6022 31.0877 37.402 30.1364 37.1512 29.1594C38.6621 28.7433 40.0519 28.2532 41.2828 27.6953C41.6521 27.528 41.8157 27.0931 41.6484 26.7238C41.481 26.3546 41.046 26.1909 40.6769 26.3583C39.5111 26.8866 38.1933 27.3517 36.7582 27.7472C36.1648 25.7644 35.3746 23.6944 34.4117 21.6005C35.4179 19.4355 36.2403 17.2941 36.8528 15.2455C42.3004 16.7709 45.5286 19.1799 45.5286 21.4894C45.5286 22.9816 44.2274 24.2127 43.1358 24.9826C42.8046 25.2163 42.7255 25.6742 42.9591 26.0055C43.1928 26.3369 43.6507 26.4159 43.982 26.1823C45.9542 24.7911 46.9966 23.1683 46.9966 21.4894C46.9966 18.8771 44.5137 16.4833 40.005 14.7493ZM33.2511 2.46807C33.823 2.46807 34.3319 2.59442 34.7635 2.84368C36.4381 3.81059 37.0306 6.69917 36.3887 10.7687C36.2512 11.6404 36.0609 12.5458 35.8222 13.4765C33.7467 12.9845 31.4868 12.6271 29.1153 12.4162C27.7847 10.533 26.3882 8.81091 24.9682 7.30242C25.2281 7.0462 25.4881 6.79763 25.7476 6.55844C28.6104 3.92069 31.2751 2.46807 33.2511 2.46807ZM23.9445 8.35486C25.052 9.53531 26.1464 10.8521 27.2056 12.2794C26.1517 12.222 25.0808 12.1922 23.9983 12.1922C22.8796 12.1922 21.773 12.2237 20.6851 12.2849C21.7428 10.86 22.8387 9.53785 23.9445 8.35486ZM23.9393 34.7449C22.7925 33.5294 21.6594 32.167 20.5643 30.6868C21.6911 30.7528 22.8381 30.7866 23.9983 30.7866C25.1158 30.7866 26.223 30.754 27.3131 30.6918C26.219 32.166 25.084 33.5309 23.9393 34.7449ZM23.9983 29.3186C22.4212 29.3186 20.9079 29.2576 19.4658 29.1441C18.6557 27.9622 17.8721 26.719 17.1261 25.4267C16.3918 24.155 15.7164 22.8718 15.1045 21.5948C15.7397 20.2579 16.446 18.9122 17.218 17.5748C17.9657 16.2799 18.7594 15.0242 19.5841 13.8259C20.9908 13.7184 22.4642 13.6602 23.9983 13.6602C25.493 13.6602 26.9299 13.7154 28.3038 13.8177C29.1292 15.0182 29.9274 16.2824 30.6867 17.5975C31.4549 18.9282 32.158 20.2672 32.7908 21.5976C32.1822 22.8641 31.5096 24.1379 30.7787 25.4039C30.0325 26.6964 29.2403 27.9499 28.4172 29.1462C26.977 29.2595 25.4979 29.3186 23.9983 29.3186ZM17.5769 28.9609C15.771 28.7523 14.0946 28.459 12.5657 28.0988C13.03 26.5536 13.6185 24.9514 14.3203 23.3239C14.7997 24.272 15.3115 25.2199 15.8548 26.1607C16.4094 27.1216 16.985 28.0565 17.5769 28.9609ZM17.6933 14.0043C17.0953 14.9162 16.5113 15.8629 15.9467 16.8408C15.3661 17.8465 14.8214 18.8578 14.3146 19.8676C13.5765 18.1728 12.9584 16.5034 12.476 14.9011C14.0617 14.5234 15.8075 14.2177 17.6933 14.0043ZM2.46798 21.4894C2.46798 19.1923 5.66171 16.7967 11.0563 15.2701C11.6665 17.3059 12.4853 19.4411 13.4839 21.5968C12.5235 23.6874 11.7355 25.7538 11.1436 27.7334C5.69616 26.208 2.46798 23.799 2.46798 21.4894ZM14.7455 40.5108C14.1736 40.5108 13.6647 40.3844 13.2331 40.1352C11.5585 39.1683 10.966 36.2797 11.6079 32.2102C11.7454 31.3385 11.9357 30.433 12.1744 29.5023C14.1824 29.9784 16.3631 30.3284 18.6505 30.5416C20.0158 32.48 21.4512 34.249 22.9105 35.7918C22.6899 36.0072 22.4693 36.2174 22.249 36.4204C19.3862 39.0583 16.7215 40.5108 14.7455 40.5108ZM36.2968 32.233C36.9387 36.3025 36.3462 39.1911 34.6716 40.158C32.9968 41.1248 30.1992 40.1936 26.9956 37.6031C26.321 37.0576 25.6437 36.4515 24.9686 35.7927C26.4132 34.2682 27.8519 32.5041 29.2319 30.5492C31.5251 30.3387 33.7163 29.9917 35.7291 29.5207C35.9684 30.453 36.1591 31.3599 36.2968 32.233ZM35.3348 28.1077C33.7627 28.473 32.0748 28.7604 30.3105 28.9635C30.906 28.055 31.4875 27.1121 32.0499 26.138C32.5898 25.2028 33.0983 24.2628 33.5745 23.3237C34.2786 24.9541 34.8691 26.5594 35.3348 28.1077ZM33.5813 19.8728C33.0771 18.8688 32.5353 17.8634 31.958 16.8635C31.3886 15.8773 30.7974 14.9182 30.1889 13.9914C32.083 14.2014 33.8369 14.5045 35.4309 14.8801C34.946 16.4942 34.3248 18.1706 33.5813 19.8728Z" fill="url(#paint0_linear)"/>
<path d="M40.005 14.7493C39.1389 14.4161 38.2149 14.1138 37.2433 13.8425C37.4941 12.8655 37.6943 11.914 37.839 10.9973C38.5915 6.2257 37.7599 2.87852 35.4976 1.57232C34.8399 1.1926 34.0841 1 33.2512 1C30.6203 1 27.2961 2.95388 23.9424 6.2535C23.2098 5.53399 22.4739 4.87311 21.7403 4.27985C17.9843 1.24231 14.6695 0.288814 12.4074 1.59502C10.9535 2.43441 10.0693 4.14861 9.85053 6.55208C9.81373 6.95578 10.1112 7.31279 10.5149 7.34949C10.9199 7.38687 11.2755 7.08878 11.3123 6.68508C11.4335 5.3547 11.849 3.61231 13.1412 2.86629C14.8157 1.89928 17.6136 2.83057 20.8172 5.42115C21.5162 5.98642 22.218 6.61677 22.9175 7.30339C21.5109 8.80005 20.1111 10.5226 18.767 12.4263C16.4026 12.6415 14.1505 13.0026 12.0837 13.4978C11.7218 12.0909 11.4732 10.7484 11.3506 9.50223C11.311 9.09883 10.9534 8.80406 10.5483 8.84369C10.1449 8.88333 9.85004 9.24259 9.88977 9.64599C10.0195 10.9646 10.282 12.3829 10.6646 13.8672C9.72546 14.132 8.83156 14.4262 7.99178 14.7492C3.48294 16.4833 1 18.8771 1 21.4894C1 24.1017 3.48294 26.4955 7.99158 28.2296C8.85769 28.5627 9.78173 28.865 10.7533 29.1363C10.5025 30.1134 10.3023 31.0648 10.1576 31.9815C9.40515 36.7532 10.2367 40.1003 12.4991 41.4065C13.1567 41.7863 13.9125 41.9789 14.7455 41.9789C17.346 41.9789 20.6243 40.0689 23.9387 36.8379C24.6487 37.5314 25.3617 38.1698 26.0725 38.7445C28.7306 40.8942 31.1672 42.0001 33.1666 42C33.9924 41.9999 34.7441 41.8111 35.4054 41.4293C37.6677 40.1231 38.4993 36.776 37.7468 32.0044C37.6022 31.0877 37.402 30.1364 37.1512 29.1594C38.6621 28.7433 40.0519 28.2532 41.2828 27.6953C41.6521 27.528 41.8157 27.0931 41.6484 26.7238C41.481 26.3546 41.046 26.1909 40.6769 26.3583C39.5111 26.8866 38.1933 27.3517 36.7582 27.7472C36.1648 25.7644 35.3746 23.6944 34.4117 21.6005C35.4179 19.4355 36.2403 17.2941 36.8528 15.2455C42.3004 16.7709 45.5286 19.1799 45.5286 21.4894C45.5286 22.9816 44.2274 24.2127 43.1358 24.9826C42.8046 25.2163 42.7255 25.6742 42.9591 26.0055C43.1928 26.3369 43.6507 26.4159 43.982 26.1823C45.9542 24.7911 46.9966 23.1683 46.9966 21.4894C46.9966 18.8771 44.5137 16.4833 40.005 14.7493ZM33.2511 2.46807C33.823 2.46807 34.3319 2.59442 34.7635 2.84368C36.4381 3.81059 37.0306 6.69917 36.3887 10.7687C36.2512 11.6404 36.0609 12.5458 35.8222 13.4765C33.7467 12.9845 31.4868 12.6271 29.1153 12.4162C27.7847 10.533 26.3882 8.81091 24.9682 7.30242C25.2281 7.0462 25.4881 6.79763 25.7476 6.55844C28.6104 3.92069 31.2751 2.46807 33.2511 2.46807ZM23.9445 8.35486C25.052 9.53531 26.1464 10.8521 27.2056 12.2794C26.1517 12.222 25.0808 12.1922 23.9983 12.1922C22.8796 12.1922 21.773 12.2237 20.6851 12.2849C21.7428 10.86 22.8387 9.53785 23.9445 8.35486ZM23.9393 34.7449C22.7925 33.5294 21.6594 32.167 20.5643 30.6868C21.6911 30.7528 22.8381 30.7866 23.9983 30.7866C25.1158 30.7866 26.223 30.754 27.3131 30.6918C26.219 32.166 25.084 33.5309 23.9393 34.7449ZM23.9983 29.3186C22.4212 29.3186 20.9079 29.2576 19.4658 29.1441C18.6557 27.9622 17.8721 26.719 17.1261 25.4267C16.3918 24.155 15.7164 22.8718 15.1045 21.5948C15.7397 20.2579 16.446 18.9122 17.218 17.5748C17.9657 16.2799 18.7594 15.0242 19.5841 13.8259C20.9908 13.7184 22.4642 13.6602 23.9983 13.6602C25.493 13.6602 26.9299 13.7154 28.3038 13.8177C29.1292 15.0182 29.9274 16.2824 30.6867 17.5975C31.4549 18.9282 32.158 20.2672 32.7908 21.5976C32.1822 22.8641 31.5096 24.1379 30.7787 25.4039C30.0325 26.6964 29.2403 27.9499 28.4172 29.1462C26.977 29.2595 25.4979 29.3186 23.9983 29.3186ZM17.5769 28.9609C15.771 28.7523 14.0946 28.459 12.5657 28.0988C13.03 26.5536 13.6185 24.9514 14.3203 23.3239C14.7997 24.272 15.3115 25.2199 15.8548 26.1607C16.4094 27.1216 16.985 28.0565 17.5769 28.9609ZM17.6933 14.0043C17.0953 14.9162 16.5113 15.8629 15.9467 16.8408C15.3661 17.8465 14.8214 18.8578 14.3146 19.8676C13.5765 18.1728 12.9584 16.5034 12.476 14.9011C14.0617 14.5234 15.8075 14.2177 17.6933 14.0043ZM2.46798 21.4894C2.46798 19.1923 5.66171 16.7967 11.0563 15.2701C11.6665 17.3059 12.4853 19.4411 13.4839 21.5968C12.5235 23.6874 11.7355 25.7538 11.1436 27.7334C5.69616 26.208 2.46798 23.799 2.46798 21.4894ZM14.7455 40.5108C14.1736 40.5108 13.6647 40.3844 13.2331 40.1352C11.5585 39.1683 10.966 36.2797 11.6079 32.2102C11.7454 31.3385 11.9357 30.433 12.1744 29.5023C14.1824 29.9784 16.3631 30.3284 18.6505 30.5416C20.0158 32.48 21.4512 34.249 22.9105 35.7918C22.6899 36.0072 22.4693 36.2174 22.249 36.4204C19.3862 39.0583 16.7215 40.5108 14.7455 40.5108ZM36.2968 32.233C36.9387 36.3025 36.3462 39.1911 34.6716 40.158C32.9968 41.1248 30.1992 40.1936 26.9956 37.6031C26.321 37.0576 25.6437 36.4515 24.9686 35.7927C26.4132 34.2682 27.8519 32.5041 29.2319 30.5492C31.5251 30.3387 33.7163 29.9917 35.7291 29.5207C35.9684 30.453 36.1591 31.3599 36.2968 32.233ZM35.3348 28.1077C33.7627 28.473 32.0748 28.7604 30.3105 28.9635C30.906 28.055 31.4875 27.1121 32.0499 26.138C32.5898 25.2028 33.0983 24.2628 33.5745 23.3237C34.2786 24.9541 34.8691 26.5594 35.3348 28.1077ZM33.5813 19.8728C33.0771 18.8688 32.5353 17.8634 31.958 16.8635C31.3886 15.8773 30.7974 14.9182 30.1889 13.9914C32.083 14.2014 33.8369 14.5045 35.4309 14.8801C34.946 16.4942 34.3248 18.1706 33.5813 19.8728Z" stroke="url(#paint1_linear)" mask="url(#path-1-outside-1)"/>
<path d="M23.9983 17.5696C21.8366 17.5696 20.0784 19.3278 20.0784 21.4895C20.0784 23.6512 21.8366 25.4095 23.9983 25.4095C26.16 25.4095 27.9183 23.6512 27.9183 21.4895C27.9183 19.3278 26.16 17.5696 23.9983 17.5696ZM23.9983 23.4415C22.9223 23.4415 22.0463 22.5656 22.0463 21.4895C22.0463 20.4135 22.9223 19.5376 23.9983 19.5376C25.0744 19.5376 25.9503 20.4135 25.9503 21.4895C25.9503 22.5656 25.0744 23.4415 23.9983 23.4415Z" fill="url(#paint2_linear)" stroke="url(#paint3_linear)" stroke-width="0.5"/>
<defs>
<linearGradient id="paint0_linear" x1="1" y1="1" x2="34.4072" y2="56.6748" gradientUnits="userSpaceOnUse">
<stop stop-color="#FFB300"/>
<stop offset="0.7025" stop-color="#FF6600"/>
</linearGradient>
<linearGradient id="paint1_linear" x1="1" y1="1" x2="34.4072" y2="56.6748" gradientUnits="userSpaceOnUse">
<stop stop-color="#FFB300"/>
<stop offset="0.7025" stop-color="#FF6600"/>
</linearGradient>
<linearGradient id="paint2_linear" x1="20.3284" y1="17.8196" x2="26.6079" y2="27.148" gradientUnits="userSpaceOnUse">
<stop stop-color="#FFB300"/>
<stop offset="0.7025" stop-color="#FF6600"/>
</linearGradient>
<linearGradient id="paint3_linear" x1="20.3284" y1="17.8196" x2="26.6079" y2="27.148" gradientUnits="userSpaceOnUse">
<stop stop-color="#FFB300"/>
<stop offset="0.7025" stop-color="#FF6600"/>
</linearGradient>
</defs>
</svg>
